<svg width="512" height="512" viewBox="0 0 512 512" fill="none" xmlns="http://www.w3.org/2000/svg">
<circle cx="256" cy="256" r="256" fill="#239AAA"/>
<path d="M180.931 258.702V258.316C177.264 255.614 172.826 253.106 167.615 250.597C163.37 248.474 159.703 246.737 157.001 245.193C154.106 243.65 151.984 242.106 150.633 240.562C149.282 238.825 148.51 236.895 148.51 234.386C148.51 231.878 148.896 230.527 149.861 228.983C150.826 227.439 152.37 226.281 154.299 225.509C156.229 224.737 158.545 224.158 161.054 224.158C164.913 224.158 168.773 224.737 172.44 225.702C176.106 226.667 180.352 228.211 184.984 230.141L191.931 213.351C186.72 211.035 181.703 209.299 176.878 208.141C172.054 206.983 167.036 206.211 161.826 206.211C156.615 206.211 148.703 207.369 143.492 209.685C138.282 212 134.422 215.281 131.527 219.72C128.826 223.965 127.475 229.176 127.475 235.158C127.475 241.141 128.247 243.843 129.984 247.123C131.527 250.404 133.65 253.299 136.159 255.614C138.668 257.93 141.37 259.86 144.071 261.404C146.773 262.948 149.475 264.299 151.791 265.457C155.65 267.193 158.931 268.93 161.826 270.667C164.72 272.211 167.036 273.755 168.773 275.685C170.51 277.421 171.475 279.737 171.475 282.246C171.475 284.755 170.896 286.106 169.931 287.843C168.966 289.386 167.422 290.737 165.299 291.702C163.177 292.667 160.475 293.053 156.808 293.053C151.598 293.053 146.58 292.281 141.37 290.544C136.159 288.807 131.334 286.878 126.317 284.755V304.825C129.019 306.176 131.913 307.334 135.001 308.299C138.089 309.071 141.37 309.843 144.65 310.228C148.124 310.614 151.598 311 155.071 311C162.984 311 169.738 309.843 175.334 307.527C180.931 305.018 185.177 301.544 188.071 297.106C190.966 292.667 192.51 287.457 192.51 281.474C192.51 275.492 191.545 271.632 189.422 268.158C187.492 264.492 184.598 261.404 180.931 258.702Z" fill="white"/>
<path d="M267.773 233.035C263.527 231.105 258.703 229.947 253.106 229.947C247.51 229.947 246.931 230.333 244.036 231.298C241.335 232.07 238.826 233.228 236.51 234.965C234.194 236.509 232.264 238.632 230.527 241.333H229.37C229.37 239.982 229.756 237.474 229.949 234C230.142 230.526 230.335 226.86 230.335 223V201H209.106V309.263H230.335V272.596C230.335 267 230.913 262.368 231.878 258.702C232.843 254.842 234.58 251.947 237.089 250.018C239.598 248.088 242.878 246.93 247.124 246.93C251.37 246.93 254.457 248.281 256.58 251.175C258.703 253.877 259.668 258.123 259.668 263.719V309.263H280.896V258.509C280.896 251.947 279.738 246.351 277.422 242.298C275.106 238.053 271.826 234.965 267.773 233.035Z" fill="white"/>
<path d="M95.0526 208.911C93.5088 208.911 91.7719 209.297 89.8421 209.876C88.1053 210.455 85.9825 211.42 83.8596 212.578C80.9649 214.122 77.6842 215.859 74.2105 217.788C70.7368 219.718 67.2632 221.648 63.5965 223.578C59.9298 225.701 58 228.595 58 232.455C58 236.315 58.7719 237.087 60.5088 238.63C62.2456 240.174 64.3684 241.139 66.8772 241.139C69.386 241.139 69.7719 241.139 70.9298 240.367C72.0877 239.595 73.4386 239.209 74.5965 238.437C76.5263 237.28 78.2632 235.929 79.807 234.964C81.3509 233.806 83.0877 232.648 84.6316 231.49V299.806C84.6316 302.894 85.4035 305.595 87.1404 307.525C88.8772 309.455 91.386 310.613 94.4737 310.613C97.5614 310.613 100.263 309.648 102 307.525C103.737 305.595 104.509 302.894 104.509 299.806V219.332C104.509 215.666 103.737 212.964 102 211.42C100.263 209.683 97.9474 208.911 95.0526 208.911Z" fill="white"/>
<path d="M355.387 234.771C349.79 231.684 343.229 230.14 336.088 230.14C328.948 230.14 321.615 231.684 315.825 234.771C310.036 237.859 305.79 242.491 302.702 248.473C299.615 254.455 298.071 261.596 298.071 270.28C298.071 278.964 299.036 282.438 300.773 287.455C302.702 292.473 305.211 296.719 308.685 300.192C311.966 303.666 316.018 306.175 320.457 308.105C325.088 309.841 330.106 310.613 335.509 310.613C340.913 310.613 346.702 309.841 351.334 308.105C355.966 306.368 360.018 303.666 363.106 300.192C366.387 296.719 368.895 292.473 370.632 287.455C372.369 282.438 373.334 276.648 373.334 270.28C373.334 263.912 371.79 254.455 368.509 248.473C365.229 242.491 360.79 237.859 355.194 234.771H355.387ZM350.369 283.21C349.404 286.684 347.667 289.192 345.159 291.122C342.843 292.859 339.755 293.631 336.088 293.631C332.422 293.631 329.141 292.859 326.825 291.122C324.509 289.385 322.773 286.684 321.615 283.21C320.65 279.736 320.071 275.298 320.071 270.28C320.071 262.561 321.229 256.771 323.737 253.105C326.246 249.245 330.299 247.315 336.088 247.315C341.878 247.315 343.036 248.087 345.351 249.824C347.667 251.561 349.404 254.069 350.562 257.543C351.72 261.017 352.299 265.262 352.299 270.28C352.299 275.298 351.72 279.736 350.562 283.21H350.369Z" fill="white"/>
<path d="M466.544 284.562C456.316 279.351 449.175 281.088 440.105 287.263C437.789 288.614 435.474 290.351 433.158 291.702C429.312 294.106 422.829 295.608 418.491 293.439C417.912 293.149 417.526 292.86 416.947 292.281C415.21 290.737 414.631 288.228 414.631 285.141V247.702H436.438V231.684H414.631V215.088H401.123L394.947 231.491L383.175 238.632V247.702H393.21V285.141C393.21 291.702 394.175 297.105 396.298 300.772C398.421 304.439 401.316 307.141 404.982 308.684C408.649 310.228 412.895 311 417.526 311C426.631 311 435.769 307.251 441.842 300.386C444.93 296.912 448.403 293.246 451.877 290.544C454.386 288.228 459.789 288.035 464.035 289.965C467.509 291.509 469.824 286.491 466.544 284.755V284.562Z" fill="white"/>
</svg>
